<svg width="1066" height="237" viewBox="0 0 1066 237" fill="none" xmlns="http://www.w3.org/2000/svg">
<rect width="186.838" height="43.0703" transform="matrix(0.708157 -0.706055 0.76904 0.6392 0 169.918)" fill="black"/>
<rect width="186.838" height="43.0703" transform="matrix(0.708157 -0.706055 0.76904 0.6392 98.6748 169.918)" fill="black"/>
<rect width="82.6476" height="43.0703" transform="matrix(0.708157 -0.706055 0.76904 0.6392 197.35 169.918)" fill="black"/>
<path d="M368.36 191L349.96 61.4H369.8L380.52 145.4L393.96 61.72H410.12L423.88 145.4L434.44 61.4H453.96L435.88 191H416.68L402.28 104.12L388.04 191H368.36ZM468.666 191V61.4H523.066V78.04H492.346V115.32H516.506V131.8H492.346V174.68H523.386V191H468.666ZM537.104 191V61.4H568.944C574.704 61.4 579.877 61.9333 584.464 63C589.157 64.0667 593.157 65.88 596.464 68.44C599.877 70.8933 602.49 74.2533 604.304 78.52C606.117 82.7867 607.024 88.1733 607.024 94.68C607.024 99.9067 606.277 104.387 604.784 108.12C603.397 111.853 601.317 114.84 598.544 117.08C595.77 119.213 592.304 120.653 588.144 121.4C593.264 122.253 597.477 124.067 600.784 126.84C604.197 129.507 606.704 133.027 608.304 137.4C610.01 141.773 610.864 147.053 610.864 153.24C610.864 159.427 610.064 164.92 608.464 169.72C606.97 174.413 604.677 178.36 601.584 181.56C598.597 184.653 594.81 187 590.224 188.6C585.744 190.2 580.464 191 574.384 191H537.104ZM560.784 174.36H569.744C576.89 174.36 581.744 172.653 584.304 169.24C586.864 165.72 588.144 160.333 588.144 153.08C588.144 147.853 587.504 143.64 586.224 140.44C585.05 137.133 583.024 134.68 580.144 133.08C577.37 131.48 573.637 130.68 568.944 130.68H560.784V174.36ZM560.784 114.36H568.784C573.477 114.36 577.104 113.667 579.664 112.28C582.224 110.893 583.984 108.76 584.944 105.88C586.01 103 586.544 99.3733 586.544 95C586.544 90.4133 585.744 86.8933 584.144 84.44C582.65 81.88 580.357 80.1733 577.264 79.32C574.17 78.36 570.224 77.88 565.424 77.88H560.784V114.36ZM658.806 192.76C651.02 192.76 644.513 191.267 639.286 188.28C634.06 185.187 630.113 180.707 627.446 174.84C624.78 168.973 623.286 161.773 622.966 153.24L643.286 149.24C643.5 154.253 644.086 158.68 645.046 162.52C646.113 166.36 647.66 169.347 649.686 171.48C651.82 173.507 654.593 174.52 658.006 174.52C661.846 174.52 664.566 173.4 666.166 171.16C667.766 168.813 668.566 165.88 668.566 162.36C668.566 156.707 667.286 152.067 664.726 148.44C662.166 144.813 658.753 141.187 654.486 137.56L638.166 123.16C633.58 119.213 629.9 114.84 627.126 110.04C624.46 105.133 623.126 99.1067 623.126 91.96C623.126 81.72 626.113 73.8267 632.086 68.28C638.06 62.7333 646.22 59.96 656.566 59.96C662.646 59.96 667.713 60.92 671.766 62.84C675.82 64.6533 679.02 67.2133 681.366 70.52C683.82 73.8267 685.633 77.6133 686.806 81.88C687.98 86.04 688.726 90.4667 689.046 95.16L668.886 98.68C668.673 94.6267 668.193 91 667.446 87.8C666.806 84.6 665.58 82.0933 663.766 80.28C662.06 78.4667 659.5 77.56 656.086 77.56C652.566 77.56 649.846 78.7333 647.926 81.08C646.113 83.32 645.206 86.1467 645.206 89.56C645.206 93.9333 646.113 97.56 647.926 100.44C649.74 103.213 652.353 106.093 655.766 109.08L671.926 123.32C677.26 127.8 681.793 133.08 685.526 139.16C689.366 145.133 691.286 152.387 691.286 160.92C691.286 167.107 689.9 172.6 687.126 177.4C684.46 182.2 680.673 185.987 675.766 188.76C670.966 191.427 665.313 192.76 658.806 192.76ZM740.429 192.76C731.255 192.76 723.949 191.053 718.509 187.64C713.069 184.227 709.175 179.32 706.829 172.92C704.482 166.52 703.309 158.947 703.309 150.2V101.72C703.309 92.9733 704.482 85.5067 706.829 79.32C709.175 73.0267 713.069 68.2267 718.509 64.92C723.949 61.6133 731.255 59.96 740.429 59.96C749.815 59.96 757.175 61.6133 762.509 64.92C767.949 68.2267 771.842 73.0267 774.189 79.32C776.642 85.5067 777.869 92.9733 777.869 101.72V150.36C777.869 159 776.642 166.52 774.189 172.92C771.842 179.213 767.949 184.12 762.509 187.64C757.175 191.053 749.815 192.76 740.429 192.76ZM740.429 175.32C744.375 175.32 747.255 174.467 749.069 172.76C750.989 171.053 752.269 168.707 752.909 165.72C753.549 162.733 753.869 159.48 753.869 155.96V96.28C753.869 92.6533 753.549 89.4 752.909 86.52C752.269 83.64 750.989 81.4 749.069 79.8C747.255 78.0933 744.375 77.24 740.429 77.24C736.695 77.24 733.869 78.0933 731.949 79.8C730.029 81.4 728.749 83.64 728.109 86.52C727.469 89.4 727.149 92.6533 727.149 96.28V155.96C727.149 159.48 727.415 162.733 727.949 165.72C728.589 168.707 729.869 171.053 731.789 172.76C733.709 174.467 736.589 175.32 740.429 175.32ZM795.385 191V61.4H819.065V174.68H850.425V191H795.385ZM896.999 192.76C887.399 192.76 879.932 191 874.599 187.48C869.265 183.96 865.585 178.947 863.559 172.44C861.532 165.933 860.519 158.147 860.519 149.08V61.4H883.559V151.8C883.559 155.853 883.825 159.693 884.359 163.32C884.892 166.84 886.119 169.72 888.039 171.96C890.065 174.093 893.052 175.16 896.999 175.16C901.159 175.16 904.145 174.093 905.959 171.96C907.879 169.72 909.105 166.84 909.639 163.32C910.279 159.693 910.599 155.853 910.599 151.8V61.4H933.479V149.08C933.479 158.147 932.465 165.933 930.439 172.44C928.412 178.947 924.732 183.96 919.399 187.48C914.172 191 906.705 192.76 896.999 192.76ZM984.744 192.76C976.957 192.76 970.45 191.267 965.224 188.28C959.997 185.187 956.05 180.707 953.384 174.84C950.717 168.973 949.224 161.773 948.904 153.24L969.224 149.24C969.437 154.253 970.024 158.68 970.984 162.52C972.05 166.36 973.597 169.347 975.624 171.48C977.757 173.507 980.53 174.52 983.944 174.52C987.784 174.52 990.504 173.4 992.104 171.16C993.704 168.813 994.504 165.88 994.504 162.36C994.504 156.707 993.224 152.067 990.664 148.44C988.104 144.813 984.69 141.187 980.424 137.56L964.104 123.16C959.517 119.213 955.837 114.84 953.064 110.04C950.397 105.133 949.064 99.1067 949.064 91.96C949.064 81.72 952.05 73.8267 958.024 68.28C963.997 62.7333 972.157 59.96 982.504 59.96C988.584 59.96 993.65 60.92 997.704 62.84C1001.76 64.6533 1004.96 67.2133 1007.3 70.52C1009.76 73.8267 1011.57 77.6133 1012.74 81.88C1013.92 86.04 1014.66 90.4667 1014.98 95.16L994.824 98.68C994.61 94.6267 994.13 91 993.384 87.8C992.744 84.6 991.517 82.0933 989.704 80.28C987.997 78.4667 985.437 77.56 982.024 77.56C978.504 77.56 975.784 78.7333 973.864 81.08C972.05 83.32 971.144 86.1467 971.144 89.56C971.144 93.9333 972.05 97.56 973.864 100.44C975.677 103.213 978.29 106.093 981.704 109.08L997.864 123.32C1003.2 127.8 1007.73 133.08 1011.46 139.16C1015.3 145.133 1017.22 152.387 1017.22 160.92C1017.22 167.107 1015.84 172.6 1013.06 177.4C1010.4 182.2 1006.61 185.987 1001.7 188.76C996.904 191.427 991.25 192.76 984.744 192.76ZM1031.81 191V61.4H1055.17V191H1031.81Z" fill="black"/>
</svg>
